<svg width="32" height="32" viewBox="0 0 32 32" fill="none" xmlns="http://www.w3.org/2000/svg">
<path d="M0 5C0 2.23857 2.23858 0 5 0H14.0099C16.7713 0 19.0099 2.23858 19.0099 5V17.5882C19.0099 20.3497 16.7713 22.5882 14.0099 22.5882H5C2.23858 22.5882 0 20.3497 0 17.5882V5Z" fill="#6482AD"/>
<path d="M12.9901 14.4118C12.9901 11.6503 15.2287 9.41176 17.9901 9.41176H27C29.7614 9.41176 32 11.6503 32 14.4118V27C32 29.7614 29.7614 32 27 32H17.9901C15.2287 32 12.9901 29.7614 12.9901 27V14.4118Z" fill="#7FA1C3"/>
<path d="M2.53465 4.53628C2.53465 3.4864 3.38576 2.63529 4.43564 2.63529V2.63529C5.48553 2.63529 6.33663 3.4864 6.33663 4.53628V5.25195C6.33663 6.30184 5.48553 7.15294 4.43564 7.15294V7.15294C3.38576 7.15294 2.53465 6.30184 2.53465 5.25195V4.53628Z" fill="white"/>
<path d="M8.87129 12.8186C8.87129 11.7687 9.72239 10.9176 10.7723 10.9176V10.9176C11.8222 10.9176 12.6733 11.7687 12.6733 12.8186V13.5343C12.6733 14.5842 11.8222 15.4353 10.7723 15.4353V15.4353C9.72239 15.4353 8.87129 14.5842 8.87129 13.5343V12.8186Z" fill="white"/>
<path d="M25.9802 14.3245C25.9802 13.2746 26.8313 12.4235 27.8812 12.4235V12.4235C28.9311 12.4235 29.7822 13.2746 29.7822 14.3245V15.0402C29.7822 16.0901 28.9311 16.9412 27.8812 16.9412V16.9412C26.8313 16.9412 25.9802 16.0901 25.9802 15.0402V14.3245Z" fill="#F5EDED"/>
<path d="M19.6436 22.6069C19.6436 21.557 20.4947 20.7059 21.5446 20.7059V20.7059C22.5944 20.7059 23.4455 21.557 23.4455 22.6069V23.3225C23.4455 24.3724 22.5944 25.2235 21.5446 25.2235V25.2235C20.4947 25.2235 19.6436 24.3724 19.6436 23.3225V22.6069Z" fill="#F5EDED"/>
</svg>
